<svg width="885" height="328" viewBox="0 0 885 328" fill="none" xmlns="http://www.w3.org/2000/svg">
<path d="M245.82 57.84C250.64 63.624 254.014 68.2833 255.942 71.818C257.87 75.3527 258.834 78.7267 258.834 81.94C258.834 85.796 256.263 90.2947 251.122 95.436C246.302 100.577 241.482 103.148 236.662 103.148C230.235 103.148 225.094 102.184 221.238 100.256C217.382 98.328 214.169 95.2753 211.598 91.098C206.457 83.386 200.191 76.7987 192.8 71.336C185.409 65.552 173.841 62.66 158.096 62.66C144.6 62.66 129.176 65.7127 111.824 71.818C94.7933 77.9233 82.5827 85.4747 75.192 94.472C68.7653 102.505 63.142 114.716 58.322 131.104C53.8233 147.492 51.574 163.398 51.574 178.822C51.574 197.459 55.5907 214.651 63.624 230.396C71.9787 245.82 83.868 258.191 99.292 267.51C115.037 276.829 133.835 281.488 155.686 281.488C167.575 281.488 179.786 279.239 192.318 274.74C205.171 269.92 216.257 262.208 225.576 251.604H225.094C230.878 245.499 238.108 242.446 246.784 242.446C251.925 242.446 256.745 244.695 261.244 249.194C266.064 253.693 268.474 258.191 268.474 262.69C268.474 267.51 267.671 271.848 266.064 275.704C264.779 279.239 262.208 283.255 258.352 287.754C245.177 302.535 229.593 312.657 211.598 318.12C193.603 323.583 172.074 326.314 147.01 326.314C124.838 326.314 102.345 321.012 79.53 310.408C57.0367 299.804 39.6847 286.951 27.474 271.848C21.0473 262.529 14.7813 249.194 8.676 231.842C2.89199 214.169 -5.7444e-06 199.869 -5.7444e-06 188.944C-5.7444e-06 160.988 4.17733 134.478 12.532 109.414C21.208 84.0287 34.0613 63.7847 51.092 48.682C62.3387 38.3993 78.566 30.6873 99.774 25.546C120.982 20.4047 140.423 17.834 158.096 17.834C179.625 17.834 196.495 20.8867 208.706 26.992C221.238 32.776 233.609 43.0587 245.82 57.84ZM365.153 250.64C365.153 262.851 366.92 272.33 370.455 279.078C374.311 285.505 379.131 288.718 384.915 288.718C388.128 288.718 391.181 288.557 394.073 288.236C396.965 287.593 399.857 287.272 402.749 287.272C405.962 287.272 408.693 288.879 410.943 292.092C413.513 295.305 414.799 298.84 414.799 302.696C414.799 310.408 411.103 316.513 403.713 321.012C396.643 325.189 387.003 327.278 374.793 327.278C366.117 327.278 357.28 324.707 348.283 319.566C339.607 314.103 332.377 305.749 326.593 294.502C320.809 282.934 317.917 268.635 317.917 251.604C317.917 214.972 318.559 183.963 319.845 158.578C321.451 128.373 322.255 90.2947 322.255 44.344C322.255 29.884 323.058 19.762 324.665 13.978C326.593 9.47933 329.645 6.10532 333.823 3.85598C338.321 1.28533 342.981 3.57628e-07 347.801 3.57628e-07C352.621 3.57628e-07 356.798 0.803333 360.333 2.41C364.189 4.01666 366.759 6.58733 368.045 10.122C369.33 13.978 370.133 17.834 370.455 21.69C371.097 25.2247 371.419 30.366 371.419 37.114C371.419 50.2887 370.937 62.9813 369.973 75.192C369.33 89.9733 369.009 100.738 369.009 107.486C366.438 164.041 365.153 211.759 365.153 250.64ZM472.255 15.906C483.501 16.87 493.302 19.9226 501.657 25.064C510.011 29.884 514.189 37.2747 514.189 47.236C514.189 54.6267 510.654 60.5713 503.585 65.07C496.837 69.2473 488.643 71.336 479.003 71.336C469.684 71.336 463.257 68.926 459.723 64.106C456.188 59.286 454.421 54.3053 454.421 49.164C454.421 39.524 455.385 31.4907 457.313 25.064C459.562 18.6373 464.543 15.5847 472.255 15.906ZM510.815 229.432V243.41C510.815 255.942 511.136 267.831 511.779 279.078C512.743 290.003 513.867 301.089 515.153 312.336C514.831 315.549 512.421 318.923 507.923 322.458C503.424 325.671 499.407 327.278 495.873 327.278C489.767 327.278 483.501 326.153 477.075 323.904C470.969 321.333 467.274 318.281 465.989 314.746C464.061 304.463 463.097 295.305 463.097 287.272C463.097 260.923 462.293 231.36 460.687 198.584C459.401 169.664 458.759 149.42 458.759 137.852C458.759 132.068 461.651 127.087 467.435 122.91C473.219 118.733 479.324 116.644 485.751 116.644C495.069 116.644 501.496 118.733 505.031 122.91C508.887 127.087 510.815 133.675 510.815 142.672V229.432ZM764.279 281.488C769.741 285.665 773.437 289.682 775.365 293.538C777.293 297.394 778.257 302.214 778.257 307.998C778.257 312.818 775.686 317.317 770.545 321.494C765.725 325.35 761.226 327.278 757.049 327.278C753.514 327.278 749.337 326.153 744.517 323.904C739.697 321.655 736.001 319.084 733.431 316.192C729.896 313.3 722.987 306.231 712.705 294.984C702.743 283.737 695.353 274.901 690.533 268.474C678.965 254.014 673.181 246.784 673.181 246.784L656.311 226.058L625.463 251.122L627.391 303.66C627.391 312.336 625.141 318.441 620.643 321.976C616.465 325.511 612.288 327.278 608.111 327.278C602.005 327.278 596.543 326.153 591.723 323.904C587.224 321.655 584.493 319.084 583.529 316.192C579.994 303.339 578.227 286.469 578.227 265.582C578.227 226.379 578.869 195.049 580.155 171.592C581.44 142.351 582.083 114.716 582.083 88.688C582.083 80.6547 581.119 69.5687 579.191 55.43C578.869 52.538 578.387 47.8787 577.745 41.452C577.102 35.0253 576.781 29.2413 576.781 24.1C576.781 16.7093 579.191 10.9253 584.011 6.748C589.152 2.57066 595.739 0.481994 603.773 0.481994C610.199 0.481994 615.341 2.57066 619.197 6.748C623.374 10.604 625.463 16.0667 625.463 23.136C625.463 33.74 625.784 47.718 626.427 65.07C627.069 82.422 627.391 95.1147 627.391 103.148C627.391 113.109 627.069 126.445 626.427 143.154C625.784 152.151 625.463 158.899 625.463 163.398C625.463 177.537 625.623 189.265 625.945 198.584C637.513 186.695 652.937 172.877 672.217 157.132C691.818 141.065 707.081 129.819 718.007 123.392C730.217 116.001 737.608 112.306 740.179 112.306C746.927 112.306 752.711 113.752 757.531 116.644C762.351 119.536 764.761 123.874 764.761 129.658C764.761 135.442 763.957 139.941 762.351 143.154C760.744 146.046 757.852 149.099 753.675 152.312L691.497 197.62C705.314 214.651 719.613 232.003 734.395 249.676C749.176 267.028 759.137 277.632 764.279 281.488ZM876.954 45.79C876.954 63.142 875.99 88.5273 874.062 121.946C872.134 154.079 871.17 178.661 871.17 195.692C871.17 200.191 871.491 209.509 872.134 223.648C871.812 229.111 869.884 233.288 866.35 236.18C862.815 238.751 858.638 240.036 853.818 240.036C848.676 240.036 844.017 238.751 839.84 236.18C835.662 233.609 833.092 230.235 832.128 226.058C828.272 199.709 826.344 168.218 826.344 131.586L826.826 56.394C826.826 44.5047 828.272 34.8647 831.164 27.474C834.377 19.762 841.125 15.906 851.408 15.906C860.084 15.906 866.51 18.798 870.688 24.582C874.865 30.0447 876.954 37.114 876.954 45.79ZM851.408 265.1C873.258 265.1 884.184 273.294 884.184 289.682C884.184 298.037 881.452 305.749 875.99 312.818C870.848 319.566 864.261 322.94 856.228 322.94C846.588 322.94 838.715 320.048 832.61 314.264C826.504 308.159 823.452 301.089 823.452 293.056C823.452 285.987 826.022 279.56 831.164 273.776C836.626 267.992 843.374 265.1 851.408 265.1Z" fill="black"/>
</svg>
